<svg id="Layer_1" data-name="Layer 1" xmlns="http://www.w3.org/2000/svg" viewBox="0 0 118 40"><defs><style>.cls-1{fill:#a6a4a4;}.cls-2{fill:#fff;}</style></defs><title>appstore</title><path class="cls-1" d="M108.14.46H7.9a12.86,12.86,0,0,0-2,.17,6.7,6.7,0,0,0-1.85.61A6.19,6.19,0,0,0,1.35,4,6.66,6.66,0,0,0,.74,5.86,12.73,12.73,0,0,0,.57,7.81c0,.3,0,.6,0,.9V31.29c0,.3,0,.6,0,.9a12.86,12.86,0,0,0,.17,2A6.88,6.88,0,0,0,1.35,36,6.35,6.35,0,0,0,2.5,37.58a6.25,6.25,0,0,0,1.59,1.16,6.7,6.7,0,0,0,1.85.61,11.7,11.7,0,0,0,2,.17l.9,0H109.2l.9,0a11.58,11.58,0,0,0,2-.17,6.83,6.83,0,0,0,1.87-.61A6.42,6.42,0,0,0,116.65,36a6.53,6.53,0,0,0,.6-1.86,14.29,14.29,0,0,0,.19-2v-.9c0-.35,0-.71,0-1.07V9.78c0-.36,0-.71,0-1.07v-.9a14.15,14.15,0,0,0-.19-1.95,6.25,6.25,0,0,0-3.33-4.6,6.83,6.83,0,0,0-1.87-.61,11.58,11.58,0,0,0-2-.17l-.9,0Z"/><path d="M8.8,38.68H7.92a12.56,12.56,0,0,1-1.83-.16A5.5,5.5,0,0,1,4.47,38a5.31,5.31,0,0,1-1.36-1,5.2,5.2,0,0,1-1-1.36A5.81,5.81,0,0,1,1.58,34a12.44,12.44,0,0,1-.16-1.83c0-.21,0-.89,0-.89V8.71s0-.67,0-.87A12.44,12.44,0,0,1,1.58,6a5.7,5.7,0,0,1,.53-1.62A5.39,5.39,0,0,1,3.1,3,5.8,5.8,0,0,1,4.47,2a5.81,5.81,0,0,1,1.62-.53,12.56,12.56,0,0,1,1.83-.16H110.08a12.31,12.31,0,0,1,1.82.16,6.1,6.1,0,0,1,1.63.53,5.41,5.41,0,0,1,2.88,4,11.34,11.34,0,0,1,.17,1.84c0,.28,0,.58,0,.87V31.27c0,.32,0,.61,0,.91a12.17,12.17,0,0,1-.16,1.81,5.77,5.77,0,0,1-.53,1.63,5.51,5.51,0,0,1-1,1.36,5.42,5.42,0,0,1-3,1.53,12.32,12.32,0,0,1-1.83.16H8.8Z"/><g id="_Group_" data-name=" Group "><g id="_Group_2" data-name=" Group 2"><g id="_Group_3" data-name=" Group 3"><path id="_Path_" data-name=" Path " class="cls-2" d="M24.75,20.29a4.84,4.84,0,0,1,2.3-4.05,4.94,4.94,0,0,0-3.9-2.11c-1.64-.17-3.23,1-4.06,1s-2.14-1-3.53-.93a5.19,5.19,0,0,0-4.37,2.66c-1.89,3.27-.48,8.08,1.33,10.72.91,1.3,2,2.74,3.35,2.69s1.86-.86,3.5-.86,2.09.86,3.5.83,2.37-1.3,3.25-2.61a10.61,10.61,0,0,0,1.48-3A4.66,4.66,0,0,1,24.75,20.29Z"/><path id="_Path_2" data-name=" Path 2" class="cls-2" d="M22.08,12.39A4.78,4.78,0,0,0,23.17,9,4.86,4.86,0,0,0,20,10.6a4.52,4.52,0,0,0-1.12,3.29A4,4,0,0,0,22.08,12.39Z"/></g></g><path class="cls-2" d="M41.88,27H37.25l-1.11,3.28h-2l4.38-12.13h2L45,30.25H43Zm-4.15-1.51H41.4l-1.81-5.32h-.05Z"/><path class="cls-2" d="M54.44,25.83c0,2.75-1.48,4.52-3.7,4.52A3,3,0,0,1,48,28.8h0v4.38H46.1V21.41h1.76v1.47h0a3.11,3.11,0,0,1,2.81-1.56C53,21.32,54.44,23.09,54.44,25.83Zm-1.87,0c0-1.79-.93-3-2.34-3s-2.32,1.21-2.32,3,.94,3,2.32,3S52.57,27.64,52.57,25.83Z"/><path class="cls-2" d="M64.17,25.83c0,2.75-1.47,4.52-3.69,4.52A3,3,0,0,1,57.7,28.8h-.05v4.38H55.84V21.41H57.6v1.47h0a3.13,3.13,0,0,1,2.82-1.56C62.69,21.32,64.17,23.09,64.17,25.83Zm-1.87,0c0-1.79-.92-3-2.33-3s-2.32,1.21-2.32,3,.93,3,2.32,3,2.33-1.17,2.33-3Z"/><path class="cls-2" d="M70.6,26.87c.14,1.21,1.31,2,2.9,2s2.63-.79,2.63-1.88c0-.94-.66-1.5-2.23-1.89l-1.57-.38c-2.23-.54-3.27-1.58-3.27-3.27,0-2.09,1.83-3.53,4.42-3.53s4.32,1.44,4.38,3.53H76c-.11-1.21-1.11-1.94-2.58-1.94S71,20.25,71,21.33c0,.85.64,1.36,2.2,1.74l1.34.33C77,24,78.05,25,78.05,26.76c0,2.27-1.81,3.7-4.68,3.7-2.69,0-4.51-1.39-4.62-3.59Z"/><path class="cls-2" d="M82,19.32v2.09h1.68v1.44H82v4.87c0,.76.34,1.11,1.08,1.11a3.9,3.9,0,0,0,.59,0v1.43a4.86,4.86,0,0,1-1,.08c-1.79,0-2.48-.67-2.48-2.38V22.85H78.86V21.41h1.29V19.32Z"/><path class="cls-2" d="M84.63,25.83c0-2.78,1.63-4.53,4.19-4.53S93,23.05,93,25.83s-1.63,4.53-4.2,4.53S84.63,28.62,84.63,25.83Zm6.54,0c0-1.91-.88-3-2.35-3s-2.34,1.13-2.34,3,.87,3,2.34,3,2.35-1.12,2.35-3Z"/><path class="cls-2" d="M94.51,21.41h1.73v1.5h.05a2.11,2.11,0,0,1,2.12-1.59,3.36,3.36,0,0,1,.63.06v1.7a2.54,2.54,0,0,0-.82-.11,1.83,1.83,0,0,0-1.9,1.76,1.34,1.34,0,0,0,0,.28v5.24H94.51Z"/><path class="cls-2" d="M107.41,27.66c-.25,1.6-1.81,2.7-3.81,2.7-2.58,0-4.17-1.72-4.17-4.49s1.6-4.57,4.09-4.57,4,1.68,4,4.36v.62h-6.25v.11a2.3,2.3,0,0,0,2.09,2.5h.29a2,2,0,0,0,2-1.24ZM101.27,25h4.42a2.13,2.13,0,0,0-2-2.25h-.16A2.24,2.24,0,0,0,101.27,25Z"/></g><g id="_Group_4" data-name=" Group 4"><path class="cls-2" d="M37.5,9a2.58,2.58,0,0,1,2.76,2.39,2.9,2.9,0,0,1,0,.51c0,1.86-1,2.93-2.75,2.93H35.4V9Zm-1.2,5h1.1a1.83,1.83,0,0,0,1.94-1.72,1.59,1.59,0,0,0,0-.38,1.83,1.83,0,0,0-1.57-2.07,1.36,1.36,0,0,0-.35,0H36.3Z"/><path class="cls-2" d="M41.27,12.62a2.08,2.08,0,0,1,4.15-.4,2.67,2.67,0,0,1,0,.4,2.08,2.08,0,1,1-4.15.4A2.67,2.67,0,0,1,41.27,12.62Zm3.25,0c0-.95-.42-1.51-1.18-1.51s-1.17.56-1.17,1.51.42,1.51,1.17,1.51,1.18-.55,1.18-1.51Z"/><path class="cls-2" d="M50.93,14.82H50l-.91-3.24h-.07l-.9,3.24h-.89L46,10.42h.88l.79,3.36h.07l.9-3.36h.83l.91,3.36h.07l.78-3.36h.87Z"/><path class="cls-2" d="M53.16,10.42H54v.7h.06a1.31,1.31,0,0,1,1.31-.78,1.43,1.43,0,0,1,1.54,1.32c0,.1,0,.21,0,.31v2.85H56V12.19c0-.71-.31-1.06-1-1.06a1,1,0,0,0-1.06,1,.86.86,0,0,0,0,.16v2.57h-.87Z"/><path class="cls-2" d="M58.28,8.7h.87v6.12h-.87Z"/><path class="cls-2" d="M60.35,12.62a2.08,2.08,0,0,1,4.15-.4,1.34,1.34,0,0,1,0,.4,2.08,2.08,0,1,1-4.15.4A2.67,2.67,0,0,1,60.35,12.62Zm3.26,0c0-.95-.43-1.51-1.18-1.51s-1.18.56-1.18,1.51.42,1.51,1.18,1.51S63.61,13.58,63.61,12.62Z"/><path class="cls-2" d="M65.42,13.58c0-.8.59-1.25,1.63-1.32l1.19-.07v-.37c0-.47-.3-.73-.9-.73s-.82.18-.91.49h-.84c.09-.76.8-1.24,1.79-1.24s1.73.55,1.73,1.48v3h-.84V14.2H68.2a1.46,1.46,0,0,1-1.32.69,1.33,1.33,0,0,1-1.46-1.18Zm2.82-.38v-.37l-1.07.07c-.61,0-.88.25-.88.64s.34.62.82.62a1,1,0,0,0,1.13-.92Z"/><path class="cls-2" d="M70.25,12.62c0-1.39.71-2.27,1.83-2.27a1.42,1.42,0,0,1,1.34.77h.07V8.7h.87v6.12h-.83v-.69h-.07a1.54,1.54,0,0,1-1.38.76C71,14.89,70.25,14,70.25,12.62Zm.9,0c0,.93.44,1.49,1.17,1.49s1.19-.57,1.19-1.49-.46-1.49-1.19-1.49-1.17.56-1.17,1.49Z"/><path class="cls-2" d="M78,12.62a2.08,2.08,0,0,1,4.15-.4,2.67,2.67,0,0,1,0,.4A2.08,2.08,0,1,1,78,13,2.67,2.67,0,0,1,78,12.62Zm3.25,0c0-.95-.42-1.51-1.18-1.51s-1.17.56-1.17,1.51.42,1.51,1.17,1.51S81.2,13.58,81.2,12.62Z"/><path class="cls-2" d="M83.26,10.42h.84v.7h.06a1.33,1.33,0,0,1,1.32-.78A1.43,1.43,0,0,1,87,11.66,1.61,1.61,0,0,1,87,12v2.85h-.87V12.19c0-.71-.31-1.06-.95-1.06a1,1,0,0,0-1.05,1,.86.86,0,0,0,0,.16v2.57h-.87Z"/><path class="cls-2" d="M91.9,9.33v1.11h1v.73h-1v2.26c0,.47.19.67.63.67l.33,0v.72a2.59,2.59,0,0,1-.48,0c-1,0-1.35-.33-1.35-1.18V11.17h-.69v-.73H91V9.33Z"/><path class="cls-2" d="M94,8.7h.86v2.43H95a1.35,1.35,0,0,1,1.34-.79,1.46,1.46,0,0,1,1.53,1.37,2.44,2.44,0,0,1,0,.27v2.84H97V12.19c0-.7-.33-1-.94-1a1,1,0,0,0-1.11.94,1,1,0,0,0,0,.17v2.57H94Z"/><path class="cls-2" d="M102.89,13.63A1.8,1.8,0,0,1,101,14.91a2,2,0,0,1-2-1.95c0-.11,0-.22,0-.32a2,2,0,0,1,1.74-2.29H101c1.22,0,2,.83,2,2.21v.31h-3.1v.05a1.15,1.15,0,0,0,1.06,1.25H101a1,1,0,0,0,1-.54Zm-3-1.41h2.22a1.06,1.06,0,0,0-1-1.14H101a1.11,1.11,0,0,0-1.13,1.11v0Z"/></g></svg>