<svg id="Layer_1" data-name="Layer 1" xmlns="http://www.w3.org/2000/svg" xmlns:xlink="http://www.w3.org/1999/xlink" viewBox="0 0 118 38"><defs><style>.cls-1,.cls-2{fill:none;}.cls-2,.cls-8{clip-path:url(#clip-path);}.cls-16,.cls-3{fill:#fff;}.cls-4{fill:#dadbdf;}.cls-5{fill:#5f6369;}.cls-6{clip-path:url(#clip-path-4);}.cls-7{fill:#edeced;}.cls-9{fill:#da4536;}.cls-10{fill:#0a9c58;}.cls-11{fill:#ffcd40;}.cls-12{fill:#f1f1f1;}.cls-13{fill:#547dbe;}.cls-14,.cls-15{fill:#212120;}.cls-14,.cls-16{fill-opacity:0.05;}.cls-15{fill-opacity:0.02;}.cls-17{fill:#221f1f;fill-opacity:0.1;}.cls-18{fill:url(#radial-gradient);}</style><clipPath id="clip-path"><circle class="cls-1" cx="19.7" cy="28.68" r="11.5"/></clipPath><clipPath id="clip-path-4"><path class="cls-1" d="M6.39,7.5V28.68A1.83,1.83,0,0,0,8.21,30.5h23A1.82,1.82,0,0,0,33,28.68V7.5Zm16.34,4.84H16.68a1.21,1.21,0,0,1,0-2.42h6.05a1.21,1.21,0,0,1,0,2.42Z"/></clipPath><radialGradient id="radial-gradient" cx="988.26" cy="-109.62" r="137.7" gradientTransform="matrix(0.25, 0, 0, -0.25, -240.75, -20)" gradientUnits="userSpaceOnUse"><stop offset="0" stop-color="#fff" stop-opacity="0.1"/><stop offset="1" stop-color="#fff" stop-opacity="0"/></radialGradient></defs><title>chrome</title><rect class="cls-3" x="0.8" y="0.25" width="116.41" height="37.49"/><path class="cls-4" d="M117.08.38V37.62H.92V.38H117.08m.25-.25H.67V37.87H117.33V.13Z"/><path class="cls-5" d="M42.44,26.49a3.37,3.37,0,0,1-2.37-5.73,3.22,3.22,0,0,1,2.37-1,3,3,0,0,1,2.35,1.05l-.57.55a2.17,2.17,0,0,0-1.78-.81,2.43,2.43,0,0,0-1.77.7A2.49,2.49,0,0,0,40,23.14,2.46,2.46,0,0,0,40.67,25a2.4,2.4,0,0,0,1.77.71,2.5,2.5,0,0,0,2-.93l.58.57a3.29,3.29,0,0,1-1.1.84A3.44,3.44,0,0,1,42.44,26.49Z"/><path class="cls-5" d="M46.53,20v2l0,.6h0a1.51,1.51,0,0,1,.56-.53,1.72,1.72,0,0,1,.83-.22,1.56,1.56,0,0,1,1.24.5,2,2,0,0,1,.43,1.34v2.68h-.83V23.79c0-.81-.36-1.22-1.08-1.22a1,1,0,0,0-.83.41,1.49,1.49,0,0,0-.32.94v2.42h-.82V20Z"/><path class="cls-5" d="M51.37,26.34h-.82V22h.79v.71h0a1.17,1.17,0,0,1,.52-.59,1.51,1.51,0,0,1,.75-.23,1.43,1.43,0,0,1,.62.11l-.31.76a1.33,1.33,0,0,0-.44-.06,1.09,1.09,0,0,0-.79.35,1.29,1.29,0,0,0-.35.93Z"/><path class="cls-5" d="M53.91,22.49a2.29,2.29,0,0,1,3.24,0,2.52,2.52,0,0,1,0,3.33,2.29,2.29,0,0,1-3.24,0,2.52,2.52,0,0,1,0-3.33Zm.61,2.81a1.38,1.38,0,0,0,2,0,1.77,1.77,0,0,0,0-2.29,1.38,1.38,0,0,0-2,0,1.77,1.77,0,0,0,0,2.29Z"/><path class="cls-5" d="M58.44,26.34V22h.79v.6h0a1.47,1.47,0,0,1,.57-.53,1.65,1.65,0,0,1,.78-.22,1.37,1.37,0,0,1,1.38.84,1.72,1.72,0,0,1,1.53-.84,1.4,1.4,0,0,1,1.17.5,2.11,2.11,0,0,1,.39,1.34v2.68h-.82V23.79a1.44,1.44,0,0,0-.24-.94.94.94,0,0,0-.73-.28,1,1,0,0,0-.8.41,1.47,1.47,0,0,0-.32.94v2.42h-.82V23.79a1.44,1.44,0,0,0-.24-.94,1,1,0,0,0-.74-.28,1,1,0,0,0-.8.41,1.52,1.52,0,0,0-.31.94v2.42Z"/><path class="cls-5" d="M68,26.49a2.1,2.1,0,0,1-1.61-.66,2.33,2.33,0,0,1-.62-1.68,2.42,2.42,0,0,1,.6-1.64A2,2,0,0,1,68,21.82a2,2,0,0,1,1.56.64,2.4,2.4,0,0,1,.59,1.69v.16H66.63a1.45,1.45,0,0,0,.44,1,1.33,1.33,0,0,0,1,.39,1.18,1.18,0,0,0,1.2-.75l.73.3a1.91,1.91,0,0,1-.7.85A2.06,2.06,0,0,1,68,26.49Zm1.18-2.86a1.2,1.2,0,0,0-.34-.72,1.26,1.26,0,0,0-.95-.34,1.2,1.2,0,0,0-.79.29,1.54,1.54,0,0,0-.46.77Z"/><path class="cls-5" d="M80.05,20l-1.7,6.39h-.84l-1.38-4.21h0l-1.37,4.21h-.84L72.1,20H73l1.35,5h0l1.39-4.18h.77L77.88,25h0l1.28-5Z"/><path class="cls-5" d="M82.19,26.49a2.1,2.1,0,0,1-1.61-.66A2.33,2.33,0,0,1,80,24.15a2.42,2.42,0,0,1,.6-1.64,1.94,1.94,0,0,1,1.54-.69,2,2,0,0,1,1.56.64,2.39,2.39,0,0,1,.58,1.69v.16H80.78a1.45,1.45,0,0,0,.44,1,1.33,1.33,0,0,0,1,.39,1.18,1.18,0,0,0,1.2-.75l.73.3a2,2,0,0,1-.7.85A2.06,2.06,0,0,1,82.19,26.49Zm1.18-2.86a1.16,1.16,0,0,0-.35-.72,1.24,1.24,0,0,0-.94-.34,1.18,1.18,0,0,0-.79.29,1.47,1.47,0,0,0-.46.77Z"/><path class="cls-5" d="M87.31,26.49a1.82,1.82,0,0,1-.9-.22,1.53,1.53,0,0,1-.59-.53h0v.6H85V20h.82v2l0,.6h0a1.53,1.53,0,0,1,.59-.53,1.82,1.82,0,0,1,.9-.22,2,2,0,0,1,1.47.67,2.58,2.58,0,0,1,0,3.33A2,2,0,0,1,87.31,26.49Zm-.13-.75a1.3,1.3,0,0,0,1-.44,1.8,1.8,0,0,0,0-2.29,1.3,1.3,0,0,0-1-.44,1.33,1.33,0,0,0-1,.43,1.83,1.83,0,0,0,0,2.31A1.33,1.33,0,0,0,87.18,25.74Z"/><path class="cls-5" d="M93.79,26.49A2.32,2.32,0,0,1,92.43,26a2,2,0,0,1-.87-1.28l.75-.3a1.7,1.7,0,0,0,.55.89,1.36,1.36,0,0,0,.93.36,1.5,1.5,0,0,0,.92-.28.91.91,0,0,0,.38-.76,1,1,0,0,0-.38-.83,3.74,3.74,0,0,0-1.21-.54,3.27,3.27,0,0,1-1.28-.69,1.44,1.44,0,0,1-.44-1.09,1.6,1.6,0,0,1,.54-1.2,2,2,0,0,1,1.43-.51,2.06,2.06,0,0,1,1.32.41,1.87,1.87,0,0,1,.66.89l-.75.31a1.15,1.15,0,0,0-.4-.56,1.26,1.26,0,0,0-.82-.26,1.33,1.33,0,0,0-.81.26.82.82,0,0,0-.33.66.72.72,0,0,0,.31.6,2.79,2.79,0,0,0,.9.44c.32.11.58.2.8.3a4,4,0,0,1,.64.38,1.47,1.47,0,0,1,.49.59,1.94,1.94,0,0,1,.17.82,1.76,1.76,0,0,1-.2.83,1.44,1.44,0,0,1-.51.58,2.85,2.85,0,0,1-.68.33A2.67,2.67,0,0,1,93.79,26.49Z"/><path class="cls-5" d="M98.45,26.42a1.46,1.46,0,0,1-1-.37A1.41,1.41,0,0,1,97,25V22.72h-.77V22H97V20.62h.82V22h1.08v.75H97.86V25c0,.48.2.72.59.72a.86.86,0,0,0,.38-.08l.29.71A1.64,1.64,0,0,1,98.45,26.42Z"/><path class="cls-5" d="M100.06,22.49a2.14,2.14,0,0,1,1.62-.67,2.11,2.11,0,0,1,1.62.67,2.52,2.52,0,0,1,0,3.33,2.11,2.11,0,0,1-1.62.67,2.14,2.14,0,0,1-1.62-.67,2.52,2.52,0,0,1,0-3.33Zm.62,2.81a1.34,1.34,0,0,0,1,.44,1.38,1.38,0,0,0,1-.44,1.77,1.77,0,0,0,0-2.29,1.38,1.38,0,0,0-1-.44,1.34,1.34,0,0,0-1,.44,1.74,1.74,0,0,0,0,2.29Z"/><path class="cls-5" d="M105.42,26.34h-.83V22h.79v.71h0a1.11,1.11,0,0,1,.51-.59,1.52,1.52,0,0,1,.76-.23,1.39,1.39,0,0,1,.61.11l-.31.76a1.29,1.29,0,0,0-.44-.06,1.09,1.09,0,0,0-.79.35,1.29,1.29,0,0,0-.34.93Z"/><path class="cls-5" d="M109.55,26.49a2.12,2.12,0,0,1-1.61-.66,2.37,2.37,0,0,1-.62-1.68,2.42,2.42,0,0,1,.6-1.64,2.14,2.14,0,0,1,3.1-.05,2.4,2.4,0,0,1,.59,1.69v.16h-3.46a1.49,1.49,0,0,0,.44,1,1.35,1.35,0,0,0,1,.39,1.16,1.16,0,0,0,1.19-.75l.74.3a2,2,0,0,1-.71.85A2.06,2.06,0,0,1,109.55,26.49Zm1.18-2.86a1.15,1.15,0,0,0-.34-.72,1.26,1.26,0,0,0-.94-.34,1.17,1.17,0,0,0-.79.29,1.41,1.41,0,0,0-.46.77Z"/><path class="cls-5" d="M39.59,16.41l1.82-4.84h.71l1.82,4.84h-.69l-.46-1.31h-2l-.47,1.31ZM41,14.52h1.61l-.79-2.19h0Z"/><path class="cls-5" d="M45.05,16.41,43.71,13.1h.68l1,2.57h0l1-2.57H47l-1.35,3.31Z"/><path class="cls-5" d="M48.41,16.52a1.28,1.28,0,0,1-.88-.31,1.08,1.08,0,0,1,.07-1.65,1.66,1.66,0,0,1,1-.31,1.82,1.82,0,0,1,.9.2v-.09a.72.72,0,0,0-.25-.58.89.89,0,0,0-.62-.22,1,1,0,0,0-.49.12.75.75,0,0,0-.3.36l-.57-.25a1.29,1.29,0,0,1,.46-.55,1.42,1.42,0,0,1,.89-.25,1.54,1.54,0,0,1,1.06.37,1.33,1.33,0,0,1,.42,1.05v2h-.6V16h0A1.22,1.22,0,0,1,48.41,16.52Zm.11-.57a1,1,0,0,0,.7-.29.89.89,0,0,0,.31-.68,1.26,1.26,0,0,0-.79-.21,1,1,0,0,0-.68.19.58.58,0,0,0-.23.46.46.46,0,0,0,.21.39A.83.83,0,0,0,48.52,16Z"/><path class="cls-5" d="M51.5,12.26a.39.39,0,0,1-.31.13.42.42,0,0,1-.31-.13.44.44,0,0,1-.13-.31.44.44,0,0,1,.44-.44.42.42,0,0,1,.31.13.42.42,0,0,1,.13.31A.4.4,0,0,1,51.5,12.26Zm0,4.15h-.62V13.1h.62Z"/><path class="cls-5" d="M52.94,16.41h-.62V11.57h.62Z"/><path class="cls-5" d="M54.71,16.52a1.26,1.26,0,0,1-.88-.31,1.07,1.07,0,0,1,.06-1.65,1.69,1.69,0,0,1,1-.31,1.87,1.87,0,0,1,.9.2v-.09a.75.75,0,0,0-.25-.58.91.91,0,0,0-.62-.22,1,1,0,0,0-.49.12.66.66,0,0,0-.3.36l-.57-.25a1.34,1.34,0,0,1,.45-.55A1.48,1.48,0,0,1,55,13a1.51,1.51,0,0,1,1,.37,1.33,1.33,0,0,1,.42,1.05v2h-.59V16h0A1.22,1.22,0,0,1,54.71,16.52Zm.1-.57a1,1,0,0,0,.7-.29.9.9,0,0,0,.32-.68,1.26,1.26,0,0,0-.79-.21,1.05,1.05,0,0,0-.69.19.61.61,0,0,0-.23.46.46.46,0,0,0,.21.39A.87.87,0,0,0,54.81,16Z"/><path class="cls-5" d="M58.88,16.52a1.48,1.48,0,0,1-.68-.16,1.2,1.2,0,0,1-.45-.41h0v.46h-.6V11.57h.63V13.1l0,.46h0a1.13,1.13,0,0,1,.45-.41,1.37,1.37,0,0,1,.68-.16,1.51,1.51,0,0,1,1.11.5A2,2,0,0,1,60,16,1.48,1.48,0,0,1,58.88,16.52Zm-.1-.57a1,1,0,0,0,.74-.33,1.38,1.38,0,0,0,0-1.74,1,1,0,0,0-.74-.32,1,1,0,0,0-.75.32,1.2,1.2,0,0,0-.31.87,1.17,1.17,0,0,0,.31.87A1,1,0,0,0,58.78,16Z"/><path class="cls-5" d="M61.61,16.41H61V11.57h.62Z"/><path class="cls-5" d="M63.83,16.52a1.62,1.62,0,0,1-1.22-.5,1.81,1.81,0,0,1-.47-1.27,1.85,1.85,0,0,1,.46-1.24A1.46,1.46,0,0,1,63.77,13a1.54,1.54,0,0,1,1.18.48,1.84,1.84,0,0,1,.44,1.28v.12H62.77a1.08,1.08,0,0,0,.33.79,1,1,0,0,0,.72.29.9.9,0,0,0,.91-.57l.55.23a1.5,1.5,0,0,1-.53.65A1.61,1.61,0,0,1,63.83,16.52Zm.9-2.17a.91.91,0,0,0-.26-.54.94.94,0,0,0-.72-.25.91.91,0,0,0-.6.21,1.17,1.17,0,0,0-.34.58Z"/><path class="cls-5" d="M68.12,12.26a.4.4,0,0,1-.31.13.42.42,0,0,1-.31-.13.4.4,0,0,1-.13-.31.42.42,0,0,1,.13-.31.46.46,0,0,1,.31-.13.44.44,0,0,1,.31.13.42.42,0,0,1,.13.31A.4.4,0,0,1,68.12,12.26Zm0,4.15H67.5V13.1h.62Z"/><path class="cls-5" d="M69.53,13.1v.46h0a1.1,1.1,0,0,1,.42-.41A1.25,1.25,0,0,1,70.6,13a1.14,1.14,0,0,1,.94.38,1.48,1.48,0,0,1,.33,1v2h-.62V14.48c0-.62-.28-.92-.82-.92a.77.77,0,0,0-.63.3,1.16,1.16,0,0,0-.24.72v1.83h-.63V13.1Z"/><path class="cls-5" d="M75.52,16.46a1,1,0,0,1-1.07-1.06V13.66h-.58V13.1h.58v-1h.62v1h.82v.56h-.82v1.69c0,.37.15.55.45.55a.58.58,0,0,0,.28-.06l.22.54A1.41,1.41,0,0,1,75.52,16.46Z"/><path class="cls-5" d="M77.14,11.57V13.1l0,.46h0a1.1,1.1,0,0,1,.42-.41,1.25,1.25,0,0,1,.62-.16,1.13,1.13,0,0,1,.94.38,1.48,1.48,0,0,1,.33,1v2h-.62V14.48c0-.62-.28-.92-.82-.92a.77.77,0,0,0-.63.3,1.16,1.16,0,0,0-.24.72v1.83h-.63V11.57Z"/><path class="cls-5" d="M81.68,16.52a1.61,1.61,0,0,1-1.22-.5,1.93,1.93,0,0,1,0-2.51A1.46,1.46,0,0,1,81.61,13a1.52,1.52,0,0,1,1.18.48,1.8,1.8,0,0,1,.45,1.28v.12H80.61a1.13,1.13,0,0,0,.34.79,1,1,0,0,0,.72.29.88.88,0,0,0,.9-.57l.56.23a1.53,1.53,0,0,1-.54.65A1.55,1.55,0,0,1,81.68,16.52Zm.89-2.17a.86.86,0,0,0-.26-.54,1,1,0,0,0-1.31,0,1.18,1.18,0,0,0-.35.58Z"/><g class="cls-6"><path class="cls-7" d="M6.39,7.5H33v23H6.39Z"/></g><g class="cls-6"><path class="cls-3" d="M22.73,9.92H16.68a1.21,1.21,0,0,0,0,2.42h6.05a1.21,1.21,0,0,0,0-2.42Z"/></g><g class="cls-6"><g class="cls-8"><path class="cls-9" d="M10,17.18V31.29h5.14l4.53-7.84H31.2V17.18Zm0,0V31.29h5.14l4.53-7.84H31.2V17.18Z"/><path class="cls-10" d="M8.21,40.18H19.15l5.08-5.08V31.29H15.17l-7-11.95Zm0,0H19.15l5.08-5.08V31.29H15.17l-7-11.95Z"/><path class="cls-11" d="M19.7,23.45l4.53,7.84-5.08,8.89H31.2V23.45Zm0,0,4.53,7.84-5.08,8.89H31.2V23.45Z"/><circle class="cls-12" cx="19.7" cy="28.68" r="5.23"/><circle class="cls-13" cx="19.7" cy="28.68" r="4.18"/></g><g class="cls-6"><path class="cls-14" d="M6.39,7.5H33V19H6.39Z"/></g><path class="cls-15" d="M6.39,18.85H33V19H6.39Z"/><path class="cls-16" d="M6.39,19H33v.15H6.39Z"/><path class="cls-15" d="M22.73,12.34H16.68a1.21,1.21,0,0,1-1.21-1.13v.08a1.21,1.21,0,0,0,1.21,1.21h6.05a1.22,1.22,0,0,0,1.21-1.21s0,0,0-.08A1.2,1.2,0,0,1,22.73,12.34ZM6.39,7.5v.16H33V7.5Z"/><path class="cls-17" d="M16.68,9.92h6.05a1.21,1.21,0,0,1,1.2,1.14s0-.05,0-.08a1.22,1.22,0,0,0-1.21-1.21H16.68A1.21,1.21,0,0,0,15.47,11v.08A1.22,1.22,0,0,1,16.68,9.92ZM31.2,30.34h-23a1.82,1.82,0,0,1-1.82-1.81v.15A1.83,1.83,0,0,0,8.21,30.5h23A1.82,1.82,0,0,0,33,28.68v-.15A1.82,1.82,0,0,1,31.2,30.34Z"/><path class="cls-18" d="M6.39,7.5V28.68A1.83,1.83,0,0,0,8.21,30.5h23A1.82,1.82,0,0,0,33,28.68V7.5Zm16.34,4.84H16.68a1.21,1.21,0,0,1,0-2.42h6.05a1.21,1.21,0,0,1,0,2.42Z"/><path class="cls-1" d="M5.18,4.48h29v29h-29Z"/></g></svg>